# xmcd CD database file
#
# Track frame offsets:
#	150
#	4469
#	16316
#	40135
#	59149
#	76001
#	94424
#	107836
#	125053
#	141082
#	158072
#	184707
#	202441
#	216871
#	231712
#	260247
#	285519
#
# Disc length: 4035 seconds
#
# Revision: 1
# Processed by: cddbd v1.5.1PL0 Copyright (c) Steve Scherf et al.
# Submitted via: CDex 1.51
#
DISCID=0a0fc111
DTITLE=Bob Dylan - Dylan and the dead - The complete rehersals Volume  1 - Disc 2
DYEAR=1987
DGENRE=RockPopAlbums
TTITLE0=If Not For You
TTITLE1=If Not For You
TTITLE2=Slow Train
TTITLE3=Tomorrow Is A Long Time
TTITLE4=Walkin' Down The Line
TTITLE5=Gotta Serve Somebody
TTITLE6=Gonna Change My Way Of Thinking
TTITLE7=Maggie's Farm
TTITLE8=Chimes Of Freedom
TTITLE9=All I Really Want To Do
TTITLE10=John Brown
TTITLE11=Heart Of Mine
TTITLE12=Rolling In My Sweet Baby's Arms
TTITLE13=John Hardy (John Hardy Was A Desperate Man)
TTITLE14=The Ballad Of Fankie Lee And Judas Priest
TTITLE15=John Brown
TTITLE16=I'll Be Your Baby Tonight
EXTD=YEAR: 1987
EXTT0=
EXTT1=
EXTT2=
EXTT3=
EXTT4=
EXTT5=
EXTT6=
EXTT7=
EXTT8=
EXTT9=
EXTT10=
EXTT11=
EXTT12=
EXTT13=
EXTT14=
EXTT15=
EXTT16=
PLAYORDER=
